<svg width="722" height="373" viewBox="0 0 722 373" fill="none" xmlns="http://www.w3.org/2000/svg">
    <g clip-path="url(#clip0_2_2)">
        <circle cx="449.5" cy="197.5" r="70.5" fill="#D9D9D9" fill-opacity="0.4"/>
        <path d="M466.632 259.048L423.103 139.451L430.764 136.662L474.294 256.259L466.632 259.048ZM461.95 165.944C459.666 161.414 456.055 158.566 451.116 157.401C446.177 156.236 440.811 156.707 435.018 158.816C430.783 160.357 427.326 162.392 424.648 164.918C422.001 167.433 420.226 170.213 419.324 173.258C418.453 176.291 418.572 179.333 419.683 182.385C420.613 184.939 422.019 186.914 423.903 188.309C425.806 189.662 427.944 190.595 430.317 191.107C432.679 191.587 435.061 191.832 437.462 191.839C439.852 191.816 442.019 191.715 443.965 191.536L454.634 190.615C457.364 190.362 460.465 190.257 463.936 190.298C467.439 190.328 470.955 190.83 474.483 191.803C478.032 192.734 481.286 194.406 484.246 196.821C487.205 199.235 489.501 202.685 491.134 207.17C493.016 212.34 493.361 217.505 492.171 222.664C491.011 227.813 488.294 232.558 484.019 236.9C479.776 241.231 473.979 244.734 466.629 247.41C459.777 249.903 453.442 250.957 447.622 250.571C441.834 250.174 436.788 248.518 432.483 245.606C428.209 242.682 424.933 238.672 422.655 233.576L434.614 229.223C436.241 232.722 438.544 235.27 441.523 236.866C444.522 238.42 447.867 239.178 451.556 239.14C455.266 239.059 459.02 238.328 462.82 236.945C467.243 235.335 470.953 233.173 473.951 230.46C476.938 227.715 478.988 224.676 480.103 221.343C481.206 217.978 481.123 214.552 479.854 211.064C478.697 207.887 476.869 205.625 474.368 204.278C471.867 202.931 468.942 202.162 465.592 201.97C462.242 201.778 458.715 201.828 455.011 202.117L442.014 203.039C433.757 203.61 426.723 202.696 420.912 200.297C415.101 197.897 411.022 193.474 408.675 187.027C406.725 181.67 406.473 176.471 407.919 171.43C409.384 166.347 412.175 161.804 416.291 157.802C420.427 153.757 425.547 150.624 431.651 148.402C437.818 146.157 443.702 145.268 449.303 145.733C454.893 146.168 459.781 147.775 463.967 150.554C468.184 153.322 471.249 157.092 473.162 161.863L461.95 165.944Z" fill="#8CDD94" fill-opacity="0.6"/>
        <path d="M46.8523 173V42.0909H61.9375V90.4148H63.2159C64.3239 88.7102 65.858 86.5369 67.8182 83.8949C69.821 81.2102 72.6761 78.8239 76.3835 76.7358C80.1335 74.6051 85.2045 73.5398 91.5966 73.5398C99.8636 73.5398 107.151 75.6065 113.457 79.7401C119.764 83.8736 124.686 89.733 128.223 97.3182C131.76 104.903 133.528 113.852 133.528 124.165C133.528 134.562 131.76 143.575 128.223 151.203C124.686 158.788 119.786 164.669 113.521 168.845C107.257 172.979 100.034 175.045 91.8523 175.045C85.5455 175.045 80.4957 174.001 76.7031 171.913C72.9105 169.783 69.9915 167.375 67.946 164.69C65.9006 161.963 64.3239 159.705 63.2159 157.915H61.4261V173H46.8523ZM61.6818 123.909C61.6818 131.324 62.7685 137.865 64.9418 143.533C67.1151 149.158 70.2898 153.568 74.4659 156.764C78.642 159.918 83.7557 161.494 89.8068 161.494C96.1136 161.494 101.376 159.832 105.595 156.509C109.857 153.142 113.053 148.625 115.183 142.957C117.357 137.247 118.443 130.898 118.443 123.909C118.443 117.006 117.378 110.784 115.247 105.244C113.159 99.6619 109.984 95.2514 105.723 92.0128C101.504 88.7315 96.1989 87.0909 89.8068 87.0909C83.6705 87.0909 78.5142 88.6463 74.3381 91.7571C70.1619 94.8253 67.0085 99.1293 64.8778 104.669C62.7472 110.166 61.6818 116.58 61.6818 123.909ZM185.496 175.301C179.274 175.301 173.628 174.129 168.557 171.786C163.486 169.399 159.459 165.969 156.476 161.494C153.493 156.977 152.001 151.523 152.001 145.131C152.001 139.506 153.109 134.946 155.325 131.452C157.541 127.915 160.503 125.145 164.21 123.142C167.918 121.139 172.009 119.648 176.483 118.668C181 117.645 185.538 116.835 190.098 116.239C196.064 115.472 200.901 114.896 204.608 114.513C208.358 114.087 211.085 113.384 212.79 112.403C214.537 111.423 215.411 109.719 215.411 107.29V106.778C215.411 100.472 213.685 95.571 210.233 92.0767C206.824 88.5824 201.646 86.8352 194.7 86.8352C187.499 86.8352 181.852 88.4119 177.761 91.5653C173.67 94.7187 170.794 98.0852 169.132 101.665L154.814 96.5511C157.371 90.5852 160.78 85.9403 165.041 82.6165C169.345 79.25 174.033 76.9062 179.104 75.5852C184.217 74.2216 189.246 73.5398 194.189 73.5398C197.342 73.5398 200.964 73.9233 205.055 74.6903C209.189 75.4148 213.173 76.9276 217.009 79.2287C220.886 81.5298 224.104 85.0028 226.661 89.6477C229.217 94.2926 230.496 100.514 230.496 108.312V173H215.411V159.705H214.643C213.621 161.835 211.916 164.115 209.53 166.544C207.143 168.973 203.969 171.04 200.006 172.744C196.043 174.449 191.206 175.301 185.496 175.301ZM187.797 161.75C193.763 161.75 198.791 160.578 202.882 158.234C207.016 155.891 210.126 152.865 212.214 149.158C214.345 145.45 215.411 141.551 215.411 137.46V123.653C214.771 124.42 213.365 125.124 211.192 125.763C209.061 126.359 206.589 126.892 203.777 127.361C201.007 127.787 198.301 128.17 195.659 128.511C193.06 128.81 190.95 129.065 189.331 129.278C185.411 129.79 181.746 130.621 178.337 131.771C174.97 132.879 172.243 134.562 170.155 136.821C168.109 139.037 167.087 142.062 167.087 145.898C167.087 151.139 169.026 155.102 172.903 157.787C176.824 160.429 181.788 161.75 187.797 161.75ZM273.115 42.0909V173H258.029V42.0909H273.115ZM329.636 175.301C323.415 175.301 317.768 174.129 312.697 171.786C307.626 169.399 303.599 165.969 300.616 161.494C297.634 156.977 296.142 151.523 296.142 145.131C296.142 139.506 297.25 134.946 299.466 131.452C301.682 127.915 304.643 125.145 308.351 123.142C312.058 121.139 316.149 119.648 320.624 118.668C325.141 117.645 329.679 116.835 334.239 116.239C340.205 115.472 345.041 114.896 348.749 114.513C352.499 114.087 355.226 113.384 356.93 112.403C358.678 111.423 359.551 109.719 359.551 107.29V106.778C359.551 100.472 357.825 95.571 354.374 92.0767C350.964 88.5824 345.787 86.8352 338.841 86.8352C331.639 86.8352 325.993 88.4119 321.902 91.5653C317.811 94.7187 314.935 98.0852 313.273 101.665L298.955 96.5511C301.511 90.5852 304.92 85.9403 309.182 82.6165C313.486 79.25 318.173 76.9062 323.244 75.5852C328.358 74.2216 333.386 73.5398 338.33 73.5398C341.483 73.5398 345.105 73.9233 349.196 74.6903C353.33 75.4148 357.314 76.9276 361.149 79.2287C365.027 81.5298 368.244 85.0028 370.801 89.6477C373.358 94.2926 374.636 100.514 374.636 108.312V173H359.551V159.705H358.784C357.761 161.835 356.057 164.115 353.67 166.544C351.284 168.973 348.109 171.04 344.146 172.744C340.183 174.449 335.347 175.301 329.636 175.301ZM331.938 161.75C337.903 161.75 342.932 160.578 347.023 158.234C351.156 155.891 354.267 152.865 356.355 149.158C358.486 145.45 359.551 141.551 359.551 137.46V123.653C358.912 124.42 357.506 125.124 355.332 125.763C353.202 126.359 350.73 126.892 347.918 127.361C345.148 127.787 342.442 128.17 339.8 128.511C337.2 128.81 335.091 129.065 333.472 129.278C329.551 129.79 325.886 130.621 322.477 131.771C319.111 132.879 316.384 134.562 314.295 136.821C312.25 139.037 311.227 142.062 311.227 145.898C311.227 151.139 313.166 155.102 317.044 157.787C320.964 160.429 325.929 161.75 331.938 161.75ZM417.255 113.938V173H402.17V74.8182H416.744V90.1591H418.022C420.324 85.1733 423.818 81.1676 428.505 78.142C433.193 75.0739 439.244 73.5398 446.659 73.5398C453.306 73.5398 459.123 74.9034 464.109 77.6307C469.095 80.3153 472.973 84.4062 475.743 89.9034C478.512 95.358 479.897 102.261 479.897 110.614V173H464.812V111.636C464.812 103.923 462.809 97.9148 458.804 93.6108C454.798 89.2642 449.301 87.0909 442.312 87.0909C437.497 87.0909 433.193 88.1349 429.4 90.223C425.65 92.3111 422.689 95.358 420.515 99.3636C418.342 103.369 417.255 108.227 417.255 113.938Z" fill="#FFDA58"/>
        <path d="M640.597 176.045C631.136 176.045 622.976 173.957 616.115 169.781C609.297 165.562 604.034 159.682 600.327 152.139C596.662 144.554 594.83 135.733 594.83 125.676C594.83 115.619 596.662 106.756 600.327 99.0852C604.034 91.3722 609.19 85.3636 615.795 81.0597C622.443 76.7131 630.199 74.5398 639.062 74.5398C644.176 74.5398 649.226 75.392 654.212 77.0966C659.197 78.8011 663.736 81.571 667.827 85.4062C671.918 89.1989 675.178 94.2273 677.607 100.491C680.036 106.756 681.25 114.469 681.25 123.631V130.023H605.568V116.983H665.909C665.909 111.443 664.801 106.5 662.585 102.153C660.412 97.8068 657.301 94.3764 653.253 91.8622C649.247 89.348 644.517 88.0909 639.062 88.0909C633.054 88.0909 627.855 89.5824 623.466 92.5653C619.119 95.5057 615.774 99.3409 613.43 104.071C611.087 108.801 609.915 113.872 609.915 119.284V127.977C609.915 135.392 611.193 141.678 613.75 146.834C616.349 151.947 619.95 155.847 624.553 158.531C629.155 161.173 634.503 162.494 640.597 162.494C644.56 162.494 648.139 161.94 651.335 160.832C654.574 159.682 657.365 157.977 659.709 155.719C662.053 153.418 663.864 150.562 665.142 147.153L679.716 151.244C678.182 156.188 675.604 160.534 671.982 164.284C668.359 167.991 663.885 170.889 658.558 172.977C653.232 175.023 647.244 176.045 640.597 176.045Z" fill="#FFDA58"/>
        <path d="M572.841 110.384L567.711 119.795H495L499.015 110.384H572.841ZM563.25 129.205L558.12 138.616H495L499.015 129.205H563.25ZM586 84.9753L580.647 94.7624C578.268 92.943 575.759 91.3745 573.119 90.057C570.48 88.7395 567.711 87.7201 564.811 86.9986C561.912 86.2771 558.864 85.9163 555.667 85.9163C549.347 85.9163 543.66 87.3907 538.604 90.3394C533.549 93.288 529.552 97.6326 526.616 103.373C523.679 109.114 522.211 116.156 522.211 124.5C522.211 132.844 523.679 139.886 526.616 145.627C529.552 151.367 533.549 155.712 538.604 158.661C543.66 161.609 549.347 163.084 555.667 163.084C558.938 163.084 562.023 162.723 564.923 162.001C567.859 161.28 570.592 160.292 573.119 159.037C575.684 157.782 578.045 156.371 580.201 154.802L585.777 164.589C581.874 167.695 577.301 170.048 572.06 171.647C566.819 173.216 561.354 174 555.667 174C546.522 174 538.418 171.992 531.355 167.977C524.33 163.962 518.809 158.253 514.795 150.85C510.817 143.447 508.828 134.663 508.828 124.5C508.828 114.337 510.817 105.553 514.795 98.1502C518.809 90.7472 524.33 85.038 531.355 81.0228C538.418 77.0076 546.522 75 555.667 75C561.577 75 567.097 75.8626 572.227 77.5879C577.394 79.3132 581.985 81.7757 586 84.9753Z" fill="#FFDA58"/>
        <path d="M475.227 210.369L432.863 327H415.549L464.328 199.031H475.49L475.227 210.369ZM510.734 327L468.283 210.369L468.02 199.031H479.182L528.137 327H510.734ZM508.537 279.627V293.514H436.643V279.627H508.537ZM592.473 276.814H558.283V263.016H592.473C599.094 263.016 604.455 261.961 608.557 259.852C612.658 257.742 615.646 254.812 617.521 251.062C619.455 247.312 620.422 243.035 620.422 238.23C620.422 233.836 619.455 229.705 617.521 225.838C615.646 221.971 612.658 218.865 608.557 216.521C604.455 214.119 599.094 212.918 592.473 212.918H562.238V327H545.275V199.031H592.473C602.141 199.031 610.314 200.701 616.994 204.041C623.674 207.381 628.742 212.01 632.199 217.928C635.656 223.787 637.385 230.496 637.385 238.055C637.385 246.258 635.656 253.26 632.199 259.061C628.742 264.861 623.674 269.285 616.994 272.332C610.314 275.32 602.141 276.814 592.473 276.814ZM677.023 199.031V327H660.061V199.031H677.023Z" fill="#A5FFFA"/>
        <path d="M51.0085 301L51.0085 210.091H81.7259C88.8281 210.091 94.6579 211.304 99.2152 213.731C103.772 216.128 107.146 219.427 109.336 223.63C111.526 227.832 112.621 232.611 112.621 237.967C112.621 243.324 111.526 248.073 109.336 252.216C107.146 256.359 103.787 259.614 99.2596 261.982C94.7319 264.32 88.9465 265.489 81.9034 265.489H57.0455L57.0455 255.545H81.5483C86.4015 255.545 90.3078 254.835 93.267 253.415C96.2559 251.994 98.4162 249.982 99.7479 247.378C101.109 244.744 101.79 241.607 101.79 237.967C101.79 234.327 101.109 231.146 99.7479 228.424C98.3866 225.701 96.2115 223.6 93.2227 222.12C90.2338 220.611 86.2831 219.857 81.3707 219.857H62.017L62.017 301H51.0085ZM93.7997 260.162L116.172 301H103.388L81.3707 260.162H93.7997ZM130.965 301V210.091L185.83 210.091V219.857H141.973V250.574H182.989V260.339H141.973V291.234H186.54V301H130.965ZM255.388 232.818C254.855 228.32 252.695 224.828 248.907 222.342C245.119 219.857 240.473 218.614 234.968 218.614C230.944 218.614 227.422 219.265 224.404 220.567C221.415 221.869 219.077 223.659 217.39 225.938C215.733 228.216 214.905 230.806 214.905 233.706C214.905 236.133 215.482 238.219 216.636 239.965C217.819 241.681 219.329 243.116 221.163 244.271C222.998 245.395 224.922 246.327 226.934 247.067C228.946 247.777 230.796 248.354 232.483 248.798L241.716 251.284C244.083 251.906 246.717 252.764 249.617 253.859C252.547 254.954 255.343 256.448 258.006 258.342C260.699 260.206 262.919 262.603 264.665 265.533C266.411 268.463 267.284 272.058 267.284 276.32C267.284 281.232 265.997 285.671 263.422 289.636C260.877 293.602 257.148 296.753 252.236 299.091C247.353 301.429 241.42 302.598 234.436 302.598C227.925 302.598 222.288 301.547 217.524 299.446C212.789 297.345 209.06 294.416 206.337 290.657C203.645 286.899 202.12 282.534 201.765 277.562H213.129C213.425 280.995 214.579 283.836 216.591 286.085C218.633 288.305 221.208 289.962 224.315 291.057C227.452 292.122 230.825 292.655 234.436 292.655C238.638 292.655 242.411 291.974 245.755 290.613C249.099 289.222 251.748 287.299 253.701 284.842C255.654 282.357 256.63 279.456 256.63 276.142C256.63 273.124 255.787 270.667 254.1 268.773C252.413 266.879 250.194 265.341 247.442 264.157C244.69 262.973 241.716 261.937 238.52 261.05L227.334 257.854C220.231 255.812 214.609 252.897 210.466 249.109C206.323 245.321 204.251 240.364 204.251 234.239C204.251 229.149 205.627 224.71 208.379 220.922C211.161 217.104 214.89 214.145 219.565 212.044C224.271 209.913 229.523 208.848 235.324 208.848C241.183 208.848 246.391 209.899 250.949 212C255.506 214.071 259.116 216.912 261.78 220.522C264.473 224.133 265.893 228.231 266.041 232.818H255.388ZM280.412 219.857V210.091H348.594V219.857H320.007V301H308.999V219.857H280.412Z" fill="white"/>
        <line x1="40" y1="184.5" x2="677" y2="184.5" stroke="white" stroke-width="3"/>
        <line x1="405.541" y1="320.469" x2="454.661" y2="185.513" stroke="white" stroke-width="3"/>
        <line x1="339.541" y1="320.469" x2="388.661" y2="185.513" stroke="white" stroke-width="3"/>
        <path d="M359.201 299.531C359.875 297.678 360.762 296.099 361.86 294.794C362.959 293.49 364.175 292.488 365.511 291.789C366.852 291.072 368.269 290.663 369.761 290.561C371.234 290.453 372.687 290.66 374.119 291.181L390.857 297.273C392.288 297.794 393.543 298.573 394.621 299.61C395.68 300.639 396.493 301.86 397.06 303.272C397.634 304.666 397.922 306.215 397.925 307.92C397.927 309.626 397.592 311.405 396.917 313.259L393.831 321.738C393.156 323.592 392.269 325.171 391.171 326.476C390.073 327.78 388.853 328.791 387.511 329.508C386.176 330.207 384.771 330.61 383.298 330.718C381.806 330.82 380.344 330.61 378.913 330.089L362.175 323.997C360.743 323.476 359.498 322.7 358.438 321.67C357.361 320.634 356.535 319.419 355.961 318.025C355.394 316.613 355.11 315.055 355.107 313.349C355.104 311.644 355.44 309.864 356.114 308.011L359.201 299.531ZM361.037 302.195L378.904 308.698L380.416 309.685L380.085 311.622L378.592 315.724L381.51 316.786L383.063 312.519L383.69 309.598L382.792 306.84L362.089 299.305L361.037 302.195ZM371.065 266.936C371.739 265.082 372.626 263.503 373.724 262.198C374.822 260.894 376.039 259.892 377.374 259.193C378.716 258.476 380.133 258.067 381.625 257.966C383.098 257.858 384.551 258.064 385.982 258.585L402.721 264.678C404.152 265.199 405.407 265.977 406.484 267.014C407.544 268.044 408.357 269.265 408.924 270.677C409.497 272.07 409.786 273.619 409.788 275.325C409.791 277.03 409.455 278.81 408.781 280.663L405.695 289.143C405.02 290.996 404.133 292.576 403.035 293.88C401.937 295.185 400.716 296.196 399.375 296.913C398.039 297.611 396.635 298.015 395.162 298.123C393.67 298.224 392.208 298.014 390.777 297.493L374.038 291.401C372.607 290.88 371.361 290.105 370.302 289.075C369.224 288.038 368.399 286.823 367.825 285.43C367.258 284.018 366.973 282.459 366.971 280.754C366.968 279.048 367.304 277.269 367.978 275.415L371.065 266.936ZM389.576 267.812L387.069 267.336L384.693 268.467L383.348 271.22L381.103 277.386L380.162 278.945C379.816 278.924 379.518 278.888 379.266 278.838C378.996 278.781 378.706 278.748 378.397 278.74L375.507 277.688L374.023 276.711L374.326 274.764L376.871 267.771L378.336 265.374L375.576 263.621L373.973 266.654L371.338 273.894L370.721 276.788L371.832 279.218L374.014 280.418L377.786 281.791L380.228 282.274L382.614 281.116L383.974 278.494L386.239 272.272L387.125 270.693C387.421 270.738 387.701 270.767 387.966 270.78C388.231 270.794 388.503 270.82 388.78 270.858L392.386 272.171C392.611 272.294 392.845 272.452 393.087 272.644C393.335 272.818 393.569 272.976 393.787 273.117L393.411 275.007L390.926 281.835L389.504 284.372L392.227 286.143L393.785 283.062L396.39 275.904L397.081 272.976L395.988 270.583L393.761 269.335L389.576 267.812ZM382.928 234.34C383.603 232.487 384.49 230.907 385.588 229.603C386.686 228.298 387.903 227.297 389.238 226.598C390.58 225.881 391.997 225.472 393.489 225.37C394.962 225.262 396.415 225.469 397.846 225.99L414.584 232.082C416.016 232.603 417.271 233.382 418.348 234.418C419.408 235.448 420.221 236.669 420.788 238.081C421.361 239.474 421.649 241.024 421.652 242.729C421.655 244.435 421.319 246.214 420.645 248.068L417.558 256.547C416.884 258.401 415.997 259.98 414.899 261.285C413.8 262.589 412.58 263.6 411.238 264.317C409.903 265.016 408.499 265.419 407.026 265.527C405.534 265.629 404.072 265.419 402.64 264.898L385.902 258.806C384.471 258.284 383.225 257.509 382.166 256.479C381.088 255.443 380.263 254.228 379.689 252.834C379.122 251.422 378.837 249.864 378.834 248.158C378.832 246.453 379.167 244.673 379.842 242.82L382.928 234.34ZM391.93 231.194L389.477 230.738L387.084 231.831L385.667 234.526L382.981 241.904L382.345 244.853L383.465 247.256L385.657 248.428L399.533 253.478L402.02 254.01L404.416 252.824L405.749 250.191L408.434 242.813L409.136 239.857L408.033 237.491L405.805 236.244L391.93 231.194ZM405.842 239.999L405.456 241.916L402.89 248.964L401.964 250.653L400.162 250.465L386.975 245.665L385.561 244.839L385.959 242.801L388.525 235.754L389.529 233.937L391.253 234.253L404.44 239.052L405.842 239.999ZM403.538 199.129L401.086 198.673L398.682 199.794L397.33 202.481L394.825 209.364L393.71 214.57L415.789 222.606L416.851 219.688L397.304 212.573L397.728 210.296L400.133 203.689L401.127 201.899L402.852 202.215L420.829 208.758L421.901 205.813L403.538 199.129ZM394.792 201.745C395.467 199.891 396.353 198.312 397.452 197.007C398.55 195.703 399.767 194.701 401.102 194.002C402.444 193.285 403.861 192.876 405.352 192.775C406.826 192.667 408.278 192.873 409.71 193.394L426.448 199.486C427.88 200.007 429.134 200.786 430.212 201.823C431.271 202.853 432.085 204.073 432.651 205.485C433.225 206.879 433.513 208.428 433.516 210.134C433.519 211.839 433.183 213.619 432.508 215.472L429.422 223.952C428.747 225.805 427.861 227.384 426.763 228.689C425.664 229.994 424.444 231.004 423.102 231.721C421.767 232.42 420.363 232.824 418.889 232.932C417.398 233.033 415.936 232.823 414.504 232.302L397.766 226.21C396.334 225.689 395.089 224.913 394.03 223.884C392.952 222.847 392.126 221.632 391.553 220.238C390.986 218.827 390.701 217.268 390.698 215.563C390.695 213.857 391.031 212.078 391.706 210.224L394.792 201.745Z" fill="white"/>
    </g>
    <defs>
        <clipPath id="clip0_2_2">
            <rect width="1024" height="768" fill="white" transform="translate(-16 -197)"/>
        </clipPath>
    </defs>
</svg>
